<svg xmlns="http://www.w3.org/2000/svg" viewBox="0 0 64 64">
  <defs>
    <linearGradient id="a" x1="26.75" y1="22.91" x2="37.25" y2="41.09" gradientUnits="userSpaceOnUse">
      <stop offset="0" stop-color="#ffce47"/>
      <stop offset="1" stop-color="#ffb000"/>
    </linearGradient>
  </defs>
  <circle cx="32" cy="32" r="14" fill="url(#a)"/>
  <path d="M32 15.71V9.5M32 54.5v-6.21M48.29 32h6.21M9.5 32h6.21M43.52 20.48l4.39-4.39M16.09 47.91l4.39-4.39M43.52 43.52l4.39 4.39M16.09 16.09l4.39 4.39" fill="none" stroke="#ffb000" stroke-linecap="round" stroke-miterlimit="10" stroke-width="3"/>
  <path d="M23.66 40.69a7 7 0 01-10.12-8.73 7 7 0 016.94-5.69h.25a10.49 10.49 0 0119.92 4.62 7 7 0 01-9.93 9.8z" fill="#fff" opacity=".8"/>
</svg>
